<?xml version="1.0" standalone="no"?>
<!DOCTYPE svg PUBLIC "-//W3C//DTD SVG 20010904//EN"
 "http://www.w3.org/TR/2001/REC-SVG-20010904/DTD/svg10.dtd">
<svg version="1.0" xmlns="http://www.w3.org/2000/svg"
 width="84.000000pt" height="84.000000pt" viewBox="0 0 84.000000 84.000000"
 preserveAspectRatio="xMidYMid meet">

<g transform="translate(0.000000,84.000000) scale(0.100000,-0.100000)"
fill="#000000" stroke="none">
<path d="M93 680 c-23 -9 -23 -10 -23 -240 l0 -230 -25 0 c-29 0 -32 -12 -9
-34 13 -14 62 -16 384 -16 322 0 371 2 384 16 23 22 20 34 -9 34 l-25 0 0 230
0 230 -26 10 c-32 13 -621 12 -651 0z m637 -235 l0 -195 -310 0 -310 0 0 195
0 195 310 0 310 0 0 -195z m-245 -245 c-3 -5 -33 -10 -65 -10 -32 0 -62 5 -65
10 -4 6 20 10 65 10 45 0 69 -4 65 -10z"/>
<path d="M487 502 c-67 -68 -77 -82 -77 -113 0 -20 -7 -42 -15 -49 -8 -7 -15
-17 -15 -23 0 -6 10 -1 23 11 15 14 36 22 58 22 30 0 45 11 112 78 80 81 91
106 59 135 -36 33 -63 21 -145 -61z m123 60 c0 -5 -11 -19 -25 -32 l-25 -23 0
25 c0 13 3 28 7 31 9 10 43 9 43 -1z m27 -46 c-4 -9 -18 -16 -33 -16 l-27 0
23 25 c25 26 48 20 37 -9z m-87 -4 c0 -11 -9 -27 -20 -37 -19 -18 -20 -17 -20
6 0 25 16 49 32 49 4 0 8 -8 8 -18z m-69 -86 l-21 -20 0 22 c0 12 8 31 18 42
l17 21 3 -22 c2 -12 -5 -31 -17 -43z m119 49 c-7 -8 -24 -15 -37 -15 -22 0
-24 2 -13 15 7 8 24 15 37 15 22 0 24 -2 13 -15z m-159 -88 c-8 -8 -11 -4 -11
14 0 33 14 47 18 19 2 -12 -1 -27 -7 -33z m99 28 c-13 -14 -35 -25 -48 -25
l-25 0 23 25 c13 14 35 25 48 25 l25 0 -23 -25z m-45 -45 c-3 -5 -17 -10 -31
-10 -14 0 -22 4 -19 10 3 6 17 10 31 10 14 0 22 -4 19 -10z"/>
<path d="M248 423 c28 -2 76 -2 105 0 28 2 5 3 -53 3 -58 0 -81 -1 -52 -3z"/>
<path d="M248 393 c28 -2 76 -2 105 0 28 2 5 3 -53 3 -58 0 -81 -1 -52 -3z"/>
<path d="M248 363 c28 -2 76 -2 105 0 28 2 5 3 -53 3 -58 0 -81 -1 -52 -3z"/>
<path d="M237 333 c24 -2 62 -2 86 0 23 2 4 4 -43 4 -47 0 -66 -2 -43 -4z"/>
</g>
</svg>
